<?xml version="1.0" encoding="UTF-8"?>
<!DOCTYPE svg PUBLIC "-//W3C//DTD SVG 1.1//EN" "http://www.w3.org/Graphics/SVG/1.1/DTD/svg11.dtd">
<!-- Creator: CorelDRAW -->
<svg xmlns="http://www.w3.org/2000/svg" xml:space="preserve" width="1.52524in" height="0.58822in" style="shape-rendering:geometricPrecision; text-rendering:geometricPrecision; image-rendering:optimizeQuality; fill-rule:evenodd; clip-rule:evenodd"
viewBox="0 0 0.287682 0.110947"
 xmlns:xlink="http://www.w3.org/1999/xlink">
 <defs>
  <style type="text/css">
   <![CDATA[
    .str0 {stroke:black;stroke-width:0.0013099}
    .fil0 {fill:none;fill-rule:nonzero}
   ]]>
  </style>
 </defs>
 <g id="Layer_x0020_1">
  <metadata id="CorelCorpID_0Corel-Layer"/>
  <path class="fil0 str0" d="M0.0760553 0.0869622l0.00566956 0c0.000687624,0 0.00124975,0.000768565 0.00124975,0.00170792l0 0.0161421c0,0.0009401 -0.000562129,0.00170867 -0.00124975,0.00170867l-0.00566956 0c-0.000686882,0 -0.00124901,-0.000768565 -0.00124901,-0.00170867l0 -0.0161421c0,-0.000939357 0.000562129,-0.00170792 0.00124901,-0.00170792zm0.00888417 0l0.00386585 0c0.00047005,0 0.000852476,0.000768565 0.000852476,0.00170792l0 0.0161421c0,0.0009401 -0.000382426,0.00170867 -0.000852476,0.00170867l-0.00386585 0c-0.000468565,0 -0.000850991,-0.000768565 -0.000850991,-0.00170867l0 -0.0161421c0,-0.000939357 0.000382426,-0.00170792 0.000850991,-0.00170792zm-0.010523 -0.0721887l0.00482228 0c0.000147772,0 0.00026807,0.000251733 0.00026807,0.000559159l0 0.0100589c0,0.000307426 -0.000120297,0.000559159 -0.00026807,0.000559159l-0.00482228 0c-0.000147772,0 -0.00026807,-0.000251733 -0.00026807,-0.000559159l0 -0.0100589c0,-0.000307426 0.000120297,-0.000559159 0.00026807,-0.000559159zm0.0111386 0l0.00482228 0c0.000147772,0 0.00026807,0.000251733 0.00026807,0.000559159l0 0.0100589c0,0.000307426 -0.000120297,0.000559159 -0.00026807,0.000559159l-0.00482228 0c-0.000147772,0 -0.00026807,-0.000251733 -0.00026807,-0.000559159l0 -0.0100589c0,-0.000307426 0.000120297,-0.000559159 0.00026807,-0.000559159zm-0.0108713 0.036326l0.00428763 0c0.000294802,0 0.000535397,0.000502723 0.000535397,0.00111758l0 0.00894283c0,0.000614852 -0.000240594,0.00111683 -0.000535397,0.00111683l-0.00428763 0c-0.000294802,0 -0.000535397,-0.000501981 -0.000535397,-0.00111683l0 -0.00894283c0,-0.000614852 0.000240594,-0.00111758 0.000535397,-0.00111758zm0.0111386 0l0.00428763 0c0.000294802,0 0.000535397,0.000502723 0.000535397,0.00111758l0 0.00894283c0,0.000614852 -0.000240594,0.00111683 -0.000535397,0.00111683l-0.00428763 0c-0.000294802,0 -0.000535397,-0.000501981 -0.000535397,-0.00111683l0 -0.00894283c0,-0.000614852 0.000240594,-0.00111758 0.000535397,-0.00111758zm-0.0114067 -0.0178834l0.00482377 0c0.00014703,0 0.000267327,0.00025099 0.000267327,0.000558416l0 0.0100604c0,0.000307426 -0.000120297,0.000558416 -0.000267327,0.000558416l-0.00482377 0c-0.00014703,0 -0.000267327,-0.00025099 -0.000267327,-0.000558416l0 -0.0100604c0,-0.000307426 0.000120297,-0.000558416 0.000267327,-0.000558416zm0.0111386 0l0.00482377 0c0.00014703,0 0.000267327,0.00025099 0.000267327,0.000558416l0 0.0100604c0,0.000307426 -0.000120297,0.000558416 -0.000267327,0.000558416l-0.00482377 0c-0.00014703,0 -0.000267327,-0.00025099 -0.000267327,-0.000558416l0 -0.0100604c0,-0.000307426 0.000120297,-0.000558416 0.000267327,-0.000558416zm-0.0108706 0.036326l0.00428763 0c0.000294802,0 0.000535397,0.000502723 0.000535397,0.00111683l0 0.00894357c0,0.00061411 -0.000240594,0.00111683 -0.000535397,0.00111683l-0.00428763 0c-0.000294802,0 -0.000535397,-0.000502723 -0.000535397,-0.00111683l0 -0.00894357c0,-0.00061411 0.000240594,-0.00111683 0.000535397,-0.00111683zm0.0230198 0l0.00428763 0c0.000294802,0 0.000535397,0.000502723 0.000535397,0.00111683l0 0.00894357c0,0.00061411 -0.000240594,0.00111683 -0.000535397,0.00111683l-0.00428763 0c-0.000294802,0 -0.000535397,-0.000502723 -0.000535397,-0.00111683l0 -0.00894357c0,-0.00061411 0.000240594,-0.00111683 0.000535397,-0.00111683zm0.0118812 0l0.00428763 0c0.000294802,0 0.000535397,0.000502723 0.000535397,0.00111683l0 0.00894357c0,0.00061411 -0.000240594,0.00111683 -0.000535397,0.00111683l-0.00428763 0c-0.000294802,0 -0.000535397,-0.000502723 -0.000535397,-0.00111683l0 -0.00894357c0,-0.00061411 0.000240594,-0.00111683 0.000535397,-0.00111683zm-0.0237624 0l0.00428763 0c0.000294802,0 0.000535397,0.000502723 0.000535397,0.00111683l0 0.00894357c0,0.00061411 -0.000240594,0.00111683 -0.000535397,0.00111683l-0.00428763 0c-0.000294802,0 -0.000535397,-0.000502723 -0.000535397,-0.00111683l0 -0.00894357c0,-0.00061411 0.000240594,-0.00111683 0.000535397,-0.00111683zm0.0356436 0l0.00428763 0c0.000294802,0 0.000535397,0.000502723 0.000535397,0.00111683l0 0.00894357c0,0.00061411 -0.000240594,0.00111683 -0.000535397,0.00111683l-0.00428763 0c-0.000294802,0 -0.000535397,-0.000502723 -0.000535397,-0.00111683l0 -0.00894357c0,-0.00061411 0.000240594,-0.00111683 0.000535397,-0.00111683zm0.165561 0.0203933c0,0.000156683 -0.000163367,0.000378713 -0.000480446,0.000649753 -0.000600001,-0.000115099 -0.00118961,-0.00017302 -0.00178961,-0.00017302 -0.00125569,0 -0.00231386,0.000213862 -0.0031656,0.000632674 -0.00102624,0.000475991 -0.00153936,0.00115842 -0.00153936,0.00204579 0,0.000558416 0.000545793,0.00127277 0.00163738,0.00213565 0.00163738,0.00130619 0.00265248,0.00217649 0.0030349,0.00262872 0.00109159,0.0012156 0.00162624,0.00252178 0.00162624,0.00391857 0,0.000821288 -0.000207178,0.00168342 -0.000633416,0.00260347 -0.000490842,0.00101064 -0.00111312,0.00175025 -0.00185569,0.0022099 -0.00158243,0.00102698 -0.00342698,0.00189802 -0.00553367,0.00260421 -0.00228119,0.000731436 -0.00437674,0.0011005 -0.00629778,0.0011005 -0.000426238,0 -0.00138639,-0.00087104 -0.00285966,-0.00260347 -0.00148441,-0.00174134 -0.00222698,-0.0028099 -0.00222698,-0.00319604 0,-0.000139604 0.000120297,-0.000230198 0.00034901,-0.000262129 0.00149555,-0.000205693 0.00300223,-0.000419555 0.00450817,-0.000624506 0.00187723,-0.000452228 0.00281584,-0.00119183 0.00281584,-0.00221807 0,-0.000706931 -0.000545793,-0.00152005 -0.00162624,-0.00244827 -0.00194258,-0.00162624 -0.00295768,-0.00248094 -0.0030453,-0.00257971 -0.00108045,-0.00115842 -0.00162624,-0.00237401 -0.00162624,-0.00365495 0,-0.00240743 0.00161584,-0.00445248 0.00485718,-0.00613664 0.00290347,-0.0014948 0.00600372,-0.00224258 0.00931041,-0.00224258 0.000338614,0 0.00117921,0.00086213 0.00252178,0.00258713 0.00134258,0.00172574 0.00201906,0.00273565 0.00201906,0.00302302zm-0.0245696 0.00497822c0,0.00438713 2.22773e-005,0.00774654 6.53466e-005,0.0100879 0,0.000369802 3.26733e-005,0.00100248 9.87625e-005,0.00189802 6.53466e-005,0.000821288 9.80199e-005,0.00145396 9.80199e-005,0.00190545 0,0.000337129 -0.000273268,0.000533911 -0.000796783,0.000600001 -0.000960892,0.000130693 -0.00268515,0.000188614 -0.00518466,0.000188614 -0.00255446,0 -0.00419184,-5.79209e-005 -0.00488986,-0.000188614 -0.000469307,-8.24258e-005 -0.000742575,-0.000296287 -0.000796783,-0.000649011 0,-4.901e-005 0,-0.000394307 0,-0.00103515 0,-0.00142946 1.03961e-005,-0.00356585 5.4208e-005,-0.00641585 4.38119e-005,-0.00285075 6.53466e-005,-0.00497822 6.53466e-005,-0.00639134 0,-0.0067359 1.11386e-005,-0.00980867 3.34159e-005,-0.00921684 -6.60892e-005,-0.0035406 -0.000327476,-0.00659629 -0.000797526,-0.00916709 -4.30694e-005,-0.00017302 -6.53466e-005,-0.000312624 -6.53466e-005,-0.000410644 0,-0.000353466 0.000273268,-0.000526486 0.000829456,-0.000526486l0.0114178 0c0.000534654,0 0.000774506,0.000164852 0.000741832,0.000501981l-3.26733e-005 0.000435149c-0.000556931,0.00693342 -0.000840595,0.0130612 -0.000840595,0.0183839zm-0.0263488 -4.901e-005c0,-0.000994308 -0.000469307,-0.00186461 -0.00140792,-0.00262055 -0.000938615,-0.000755941 -0.00205248,-0.00113391 -0.00335124,-0.00113391 -0.00134258,0 -0.0024557,0.000427723 -0.00332896,0.00128168 -0.000807922,0.000780446 -0.00121188,0.00170867 -0.00121188,0.00276832 0,0.000426981 0.000294802,0.000649011 0.000895545,0.000649011 0.00157129,0 0.00402773,-0.000188614 0.00735669,-0.000558416 0.000698763,-7.42575e-005 0.00104777,-0.000205693 0.00104777,-0.000386139zm0.0111988 0.0014703c0,0.00161881 -0.000698763,0.00254703 -0.00208441,0.00276832 -0.000229456,3.26733e-005 -0.00243416,0.000205693 -0.00661486,0.000533911 -0.00252104,0.000205693 -0.00626511,0.000451486 -0.0112537,0.000739605 0.000294802,0.00104332 0.00120074,0.0018401 0.00271782,0.00238218 0.00123342,0.000452228 0.00264208,0.000673516 0.00421337,0.000673516 0.00189951,0 0.00380941,-0.000377228 0.00573045,-0.00115025 0.000807922,-0.000386139 0.00161584,-0.000772278 0.00242302,-0.00115842 0.000447773,0.000164852 0.00120074,0.000977971 0.00225966,0.00245644 0.00105891,0.00147847 0.00158243,0.0024156 0.00158243,0.00281807 0,0.000106188 -0.000163367,0.000295545 -0.000479703,0.000550248 -0.00259827,0.00210297 -0.00663639,0.00315446 -0.0121159,0.00315446 -0.0050755,0 -0.00916857,-0.00111758 -0.01228,-0.00334307 -0.00319753,-0.00226782 -0.00480223,-0.00529085 -0.00480223,-0.00907724 0,-0.00368837 0.00142946,-0.00671214 0.00428986,-0.00906907 0.00293614,-0.0024401 0.00684357,-0.00366461 0.0117008,-0.00366461 0.00409307,0 0.00756387,0.00112574 0.0104235,0.00337649 0.0028604,0.00224258 0.00428986,0.00491213 0.00428986,0.00800941zm-0.0326577 0.00602154c0,0.000476733 -7.64852e-005,0.00120743 -0.000239852,0.00218466 -0.000164109,0.000977971 -0.000240594,0.00170124 -0.000240594,0.00215272 0,0.000459654 -6.53466e-005,0.000755941 -0.00019604,0.000879209 -0.000120297,0.000130693 -0.000469307,0.000311882 -0.00104777,0.000558416 -0.0027505,0.00113317 -0.00579654,0.00170867 -0.00914704,0.00170867 -0.00616709,0 -0.00924506,-0.00177475 -0.00924506,-0.00532352 0,-0.00105965 5.4208e-005,-0.00264505 0.000163367,-0.00477253 0.000109159,-0.00212748 0.000164109,-0.00372104 0.000164109,-0.0047807 0,-0.000706931 -0.000545793,-0.00105965 -0.00163738,-0.00105965 -8.76239e-005,0 -0.000218317,0 -0.000415099,0 -0.00019604,1.63367e-005 -0.000327476,2.4505e-005 -0.000414357,2.4505e-005 -0.000807922,0 -0.00121188,-0.000213862 -0.00121188,-0.000649011 0,-0.000254703 2.22773e-005,-0.000649011 7.64852e-005,-0.00117475 5.49506e-005,-0.000533911 7.64852e-005,-0.000928219 7.64852e-005,-0.00118292 0,-0.000336386 -2.15347e-005,-0.000853961 -7.64852e-005,-0.00154456 -5.4208e-005,-0.000681684 -7.64852e-005,-0.00119926 -7.64852e-005,-0.00153639 0,-0.00032005 0.000677228,-0.000501238 0.00204134,-0.000525743 0.00076411,-1.63367e-005 0.00117847,-0.000180446 0.00124456,-0.000484159 0.000130693,-0.000608169 0.000174505,-0.00156906 0.000130693,-0.00289159 -8.76239e-005,-0.0020703 -0.000130693,-0.0030557 -0.000130693,-0.00295768 0,-0.00186461 0.000239852,-0.00279282 0.000709159,-0.00279282 0.000578466,0 0.00139753,9.87625e-005 0.0024557,0.000287377 0.00122302,0.000213862 0.00206287,0.000328961 0.00253292,0.000361634 0.00108045,0.000115099 0.00272822,0.00027104 0.00492253,0.000459654 0.000534654,3.34159e-005 0.000796783,0.000164852 0.000796783,0.000411387 0,0.000640842 -6.53466e-005,0.0016099 -0.000207178,0.00290792 -0.000131436,0.00129802 -0.000207921,0.00228342 -0.000207921,0.0029406 0,0.000780446 0.000305941,0.00117475 0.000928219,0.00117475 0.000741832,0 0.00187723,-2.4505e-005 0.00339431,-7.42575e-005 0.00150594,-4.08416e-005 0.00265248,-6.53466e-005 0.00341659,-6.53466e-005 0.000469307,0 0.000709159,0.000115099 0.000709159,0.000361634 0,0.000369802 -5.4208e-005,0.00092005 -0.000163367,0.00165966 -0.000109159,0.000738862 -0.000164109,0.00128985 -0.000164109,0.00165891 0,0.000386139 1.11386e-005,0.000944555 3.26733e-005,0.00168416 2.22773e-005,0.000738862 3.26733e-005,0.00129802 3.26733e-005,0.00168416 0,0.000336386 -0.000305198,0.000509406 -0.000927476,0.000509406 -0.000425495,0 -0.0011354,-1.63367e-005 -0.00213936,-4.15842e-005 -0.00100396,-2.4505e-005 -0.00171386,-3.26733e-005 -0.00213936,-3.26733e-005l-0.00240149 0c-0.000316337,0 -0.000479703,0.000353466 -0.000479703,0.00105965 0,0.000386139 0,0.000952724 0,0.00170867 2.15347e-005,0.00076411 3.26733e-005,0.00133886 3.26733e-005,0.00170867 0,0.00134703 0.00019604,0.00227525 0.000611139,0.00279282 0.000567327,0.000690595 0.00170272,0.00103515 0.00338317,0.00103515 0.000535397,0 0.00129951,-9.87625e-005 0.00229233,-0.000279208 0.000982427,-0.000188614 0.00168119,-0.000279208 0.00208515,-0.000279208 0.00044703,0 0.000676486,0.000180446 0.000676486,0.000533911zm-0.035758 -0.00478887c0,-0.00127352 -0.000513119,-0.00239109 -0.00156089,-0.00336015 -0.00104777,-0.000969803 -0.00240149,-0.00145396 -0.0040604,-0.00145396 -0.00168119,0 -0.00306683,0.00049307 -0.00415842,0.00148738 -0.00102624,0.000935645 -0.00153936,0.00203688 -0.00153936,0.00332674 0,0.00129728 0.000513119,0.00241485 0.00153936,0.00334307 0.00109159,0.000994308 0.00247723,0.00148664 0.00415842,0.00148664 0.00165891,0 0.00303416,-0.000492327 0.00412575,-0.00148664 0.0010047,-0.000928219 0.00149555,-0.00204579 0.00149555,-0.00334307zm0.0104896 0c0,0.0036557 -0.00148441,0.0066208 -0.00445322,0.00890422 -0.00297995,0.00227599 -0.00688738,0.00341733 -0.011723,0.00341733 -0.00469382,0 -0.0085463,-0.00112574 -0.0115812,-0.00337575 -0.00302302,-0.00224332 -0.00454085,-0.00513491 -0.00454085,-0.00865842 0,-0.00372104 0.00145173,-0.00674481 0.0043552,-0.0090609 0.00289307,-0.002325 0.00682204,-0.00348342 0.0117668,-0.00348342 0.00481337,0 0.0087208,0.00114208 0.0117008,0.00340916 0.00299109,0.00226782 0.0044755,0.00521659 0.0044755,0.00884778zm-0.0358055 -0.0727449c0,0.000475991 -7.64852e-005,0.00120743 -0.000239852,0.00218466 -0.000164109,0.000977971 -0.000240594,0.0017005 -0.000240594,0.00215198 0,0.000460397 -6.53466e-005,0.000756684 -0.00019604,0.000879209 -0.000120297,0.000131436 -0.000469307,0.000312624 -0.00104777,0.000559159 -0.0027505,0.00113317 -0.00579654,0.00170867 -0.00914704,0.00170867 -0.00616709,0 -0.00924506,-0.00177475 -0.00924506,-0.00532352 0,-0.00105965 5.4208e-005,-0.00264505 0.000163367,-0.00477253 0.000109159,-0.00212748 0.000164109,-0.00372179 0.000164109,-0.00478144 0,-0.000706189 -0.000545793,-0.00105965 -0.00163738,-0.00105965 -8.76239e-005,0 -0.000218317,0 -0.000415099,0 -0.00019604,1.63367e-005 -0.000327476,2.52476e-005 -0.000414357,2.52476e-005 -0.000807922,0 -0.00121188,-0.000213862 -0.00121188,-0.000649011 0,-0.000254703 2.22773e-005,-0.000649011 7.64852e-005,-0.00117475 5.49506e-005,-0.000534654 7.64852e-005,-0.000928219 7.64852e-005,-0.00118292 0,-0.000337129 -2.15347e-005,-0.000853961 -7.64852e-005,-0.00154456 -5.4208e-005,-0.000681684 -7.64852e-005,-0.00119926 -7.64852e-005,-0.00153639 0,-0.00032005 0.000677228,-0.000501238 0.00204134,-0.000525743 0.00076411,-1.63367e-005 0.00117847,-0.000180446 0.00124456,-0.000484901 0.000130693,-0.000607426 0.000174505,-0.00156832 0.000130693,-0.00289084 -8.76239e-005,-0.0020703 -0.000130693,-0.00305644 -0.000130693,-0.00295768 0,-0.00186461 0.000239852,-0.00279282 0.000709159,-0.00279282 0.000578466,0 0.00139753,9.80199e-005 0.0024557,0.000287377 0.00122302,0.000213119 0.00206287,0.000328218 0.00253292,0.000361634 0.00108045,0.000115099 0.00272822,0.00027104 0.00492253,0.000459654 0.000534654,3.34159e-005 0.000796783,0.000164109 0.000796783,0.000410644 0,0.000641585 -6.53466e-005,0.00161065 -0.000207178,0.00290867 -0.000131436,0.00129728 -0.000207921,0.00228342 -0.000207921,0.0029406 0,0.000780446 0.000305941,0.00117475 0.000928219,0.00117475 0.000741832,0 0.00187723,-2.4505e-005 0.00339431,-7.42575e-005 0.00150594,-4.08416e-005 0.00265248,-6.53466e-005 0.00341659,-6.53466e-005 0.000469307,0 0.000709159,0.000115099 0.000709159,0.000361634 0,0.00036906 -5.4208e-005,0.00092005 -0.000163367,0.00165891 -0.000109159,0.000739605 -0.000164109,0.00128985 -0.000164109,0.00165966 0,0.000386139 1.11386e-005,0.000944555 3.26733e-005,0.00168342 2.22773e-005,0.000739605 3.26733e-005,0.00129876 3.26733e-005,0.0016849 0,0.000336386 -0.000305198,0.000508664 -0.000927476,0.000508664 -0.000425495,0 -0.0011354,-1.63367e-005 -0.00213936,-4.08416e-005 -0.00100396,-2.4505e-005 -0.00171386,-3.26733e-005 -0.00213936,-3.26733e-005l-0.00240149 0c-0.000316337,0 -0.000479703,0.000353466 -0.000479703,0.00105965 0,0.000386139 0,0.000952724 0,0.00170867 2.15347e-005,0.000763367 3.26733e-005,0.00133886 3.26733e-005,0.00170867 0,0.00134703 0.00019604,0.00227525 0.000611139,0.00279282 0.000567327,0.000689852 0.00170272,0.00103515 0.00338317,0.00103515 0.000535397,0 0.00129951,-9.87625e-005 0.00229233,-0.000279208 0.000982427,-0.000188614 0.00168119,-0.000279208 0.00208515,-0.000279208 0.00044703,0 0.000676486,0.000180446 0.000676486,0.000533911zm-0.036107 -0.00749184c0,-0.000994308 -0.000469307,-0.00186535 -0.00140792,-0.00262055 -0.000938615,-0.000755941 -0.00205248,-0.00113391 -0.00335124,-0.00113391 -0.00134258,0 -0.0024557,0.000427723 -0.00332896,0.00128168 -0.000807922,0.000780446 -0.00121188,0.00170867 -0.00121188,0.00276832 0,0.000426981 0.000294802,0.000649011 0.000895545,0.000649011 0.00157129,0 0.00402773,-0.000189357 0.00735669,-0.000558416 0.000698763,-7.42575e-005 0.00104777,-0.000205693 0.00104777,-0.000386139zm0.0111988 0.0014703c0,0.00161881 -0.000698763,0.00254703 -0.00208441,0.00276832 -0.000229456,3.26733e-005 -0.00243416,0.000205693 -0.00661486,0.000533911 -0.00252104,0.000204951 -0.00626511,0.000451486 -0.0112537,0.000739605 0.000294802,0.00104332 0.00120074,0.00183936 0.00271782,0.00238218 0.00123342,0.000451486 0.00264208,0.000673516 0.00421337,0.000673516 0.00189951,0 0.00380941,-0.000377971 0.00573045,-0.00115025 0.000807922,-0.000386139 0.00161584,-0.000772278 0.00242302,-0.00115842 0.000447773,0.000164109 0.00120074,0.000977971 0.00225966,0.00245644 0.00105891,0.00147847 0.00158243,0.00241485 0.00158243,0.00281733 0,0.000106931 -0.000163367,0.000295545 -0.000479703,0.000550991 -0.00259827,0.00210297 -0.00663639,0.00315372 -0.0121159,0.00315372 -0.0050755,0 -0.00916857,-0.00111683 -0.01228,-0.00334307 -0.00319753,-0.00226708 -0.00480223,-0.0052901 -0.00480223,-0.00907649 0,-0.00368911 0.00142946,-0.00671214 0.00428986,-0.00906981 0.00293614,-0.0024401 0.00684357,-0.00366387 0.0117008,-0.00366387 0.00409307,0 0.00756387,0.00112574 0.0104235,0.00337649 0.0028604,0.00224258 0.00428986,0.00491213 0.00428986,0.00800941zm-0.034604 0.0433976c0,-0.00372476 -0.00036906,-0.0294513 -1.41089e-005,-0.0368681 0.000354208,-0.00741758 0.000537624,-0.0129891 0.000537624,-0.0167139 0,-0.000761139 -0.000645298,-0.00115025 -0.00189357,-0.00115025 -0.00105446,0 -0.00266807,8.09407e-005 -0.00482005,0.000242822 -0.00217352,0.000161881 -0.00378788,0.000242822 -0.0048208,0.000242822 -0.00126906,0 -0.0031203,-4.82674e-005 -0.00559456,-0.000145545 -0.00245347,-9.72773e-005 -0.00428243,-0.000145545 -0.00550916,-0.000145545 -0.00083911,0 -0.00161362,0.000615595 -0.00232426,0.00184604 -0.00832798,0.0133775 -0.0146116,0.0234023 -0.018851,0.0300431 -0.00152748,0.00236436 -0.00251733,0.00356287 -0.00296956,0.00356287 -0.000882179,0 -0.0019797,-0.00103663 -0.00327104,-0.00309357l-0.0184203 -0.0304151c-0.00083911,-0.00132772 -0.00148515,-0.00199233 -0.00195817,-0.00199233 -0.00230273,0 -0.00576758,6.4604e-005 -0.0103938,0.000161881 -0.00462698,0.000113614 -0.0080911,0.000178218 -0.0103938,0.000178218 -0.00180743,0 -0.00269035,0.000308169 -0.00266881,0.0009401l6.4604e-005 0.000809407c0.000344555,0.00518243 0.000538367,0.00910174 0.000581436,0.0117253 0.000408416,0.0100901 0.000623763,0.016973 0.000623763,0.0206332 0,0.00345 -0.000215347,0.00863169 -0.000666832,0.015548 -0.000430694,0.00689926 -0.00064604,0.0120817 -0.00064604,0.0155317 0,0.000501238 8.61387e-005,0.000858417 0.000279951,0.00106782 0.000193812,0.000210891 0.000688367,0.000308169 0.00154975,0.000308169l0.0210453 0c0.00118366,0 0.0017651,-0.000550248 0.0017651,-0.00166782 0,-0.00309357 -0.000107673,-0.00774134 -0.00032302,-0.0139448 -0.000193812,-0.00620273 -0.000301485,-0.0108505 -0.000301485,-0.0139441 0,-0.000631189 0.000150743,-0.00110124 0.000430694,-0.00137673 0.000301485,0.000194555 0.000494555,0.000356436 0.000580694,0.000518317 0.00195891,0.00312624 0.00492847,0.00821139 0.00888788,0.0152235 0.00370099,0.00665644 0.00667055,0.0117097 0.00895174,0.0151916 0.000409159,0.000631931 0.00172203,0.000955694 0.00389555,0.000955694 0.00148441,0 0.00232352,-1.63367e-005 0.00253886,-4.82674e-005 0.000623763,-0.000129951 0.0011406,-0.000566585 0.00157129,-0.0012802 0.00301263,-0.00560273 0.00604679,-0.0112233 0.00908095,-0.0168431 0.00516461,-0.00958739 0.00798342,-0.0144787 0.00843565,-0.0146725 0,0.00367575 0.000185644,0.0104235 0.000605199,0.0177765 0.000418812,0.00735224 0.000623763,0.0128755 0.000623763,0.0165349 0,0.00345 -0.000215347,0.0086161 -0.000666832,0.0155161 -0.000430694,0.00689926 -0.00064604,0.012049 -0.00064604,0.0154664 0,0.000826486 0.000602971,0.00131213 0.0018297,0.00147401 0.00154901,0.000194555 0.00516461,0.000291832 0.0108238,0.000291832 0.00656362,0 0.010523,-9.72773e-005 0.0118574,-0.000291832 0.0011406,-0.000161881 0.00169975,-0.000712872 0.00169975,-0.00166857 0,-0.00246164 -0.000107673,-0.00615372 -0.000300743,-0.0110777 -0.000215347,-0.00490694 -0.00032302,-0.00859976 -0.00032302,-0.0110777 0,-0.00126312 0.000451486,-0.00197525 0.00137748,-0.00213787 0.00148441,-0.000242822 0.00660595,-0.00037203 0.0153862,-0.00037203 0.00875793,0 0.0138364,0.000129208 0.0152569,0.00037203 0.000925248,0.000194555 0.00139901,0.000907427 0.00139901,0.00213787 0,0.00251065 -0.000172277,0.00626808 -0.000473763,0.0112723 -0.000322278,0.00502129 -0.00047302,0.00877798 -0.00047302,0.0112723 0,0.000663862 0.000580694,0.0010849 0.00172129,0.00127946 0.00116213,0.000194555 0.0050354,0.000291832 0.0116421,0.000291832 0.00466931,0 0.00828491,-9.72773e-005 0.0108453,-0.000291832 0.00101139,-6.4604e-005 0.00159282,-0.000146287 0.0017651,-0.000243565 0.000365347,-0.000145545 0.000559159,-0.000566585 0.000559159,-0.00123045 0,-0.00341733 -0.000215347,-0.00856709 -0.000666832,-0.0154664 -0.000430694,-0.00690001 -0.00064604,-0.0120661 -0.00064604,-0.0155161 0,-0.00365941 0.000193812,-0.00916635 0.000581436,-0.016503 0.000408416,-0.00735224 0.000602228,-0.0128265 0.000602228,-0.0164711 0,-0.000761139 -0.000602228,-0.00113317 -0.00182896,-0.00113317 -0.00124827,0 -0.00314183,4.901e-005 -0.00563837,0.000129951 -0.00249579,9.72773e-005 -0.00434629,0.000145545 -0.00557303,0.000145545 -0.0012698,0 -0.00314183,-4.82674e-005 -0.00563837,-0.000145545 -0.00251733,-8.09407e-005 -0.00436857,-0.000129951 -0.00559456,-0.000129951 -0.00103292,0 -0.00157129,0.000485644 -0.00157129,0.00145767 0,0.00231609 0.000150743,0.00576609 0.000452228,0.0103812 0.000279208,0.00459951 0.000429951,0.00803318 0.000429951,0.0103166 0,0.00110124 -0.000494555,0.00174876 -0.00150594,0.00194332 -0.00144208,0.000259159 -0.00664976,0.000372773 -0.0156446,0.000372773 -0.00966239,0 -0.0150423,-0.000113614 -0.0161399,-0.000372773 -0.00079604,-0.000194555 -0.00118366,-0.00084208 -0.00118366,-0.00194332 0,-0.000797526 2.52476e-005,-0.00172797 7.64852e-005,-0.00278837zm0.0387312 -0.0110993l0.00482228 0c0.000147772,0 0.00026807,0.000251733 0.00026807,0.000559159l0 0.0100589c0,0.000307426 -0.000120297,0.000559159 -0.00026807,0.000559159l-0.00482228 0c-0.000147772,0 -0.00026807,-0.000251733 -0.00026807,-0.000559159l0 -0.0100589c0,-0.000307426 0.000120297,-0.000559159 0.00026807,-0.000559159zm0.0111386 0l0.00482228 0c0.000147772,0 0.00026807,0.000251733 0.00026807,0.000559159l0 0.0100589c0,0.000307426 -0.000120297,0.000559159 -0.00026807,0.000559159l-0.00482228 0c-0.000147772,0 -0.00026807,-0.000251733 -0.00026807,-0.000559159l0 -0.0100589c0,-0.000307426 0.000120297,-0.000559159 0.00026807,-0.000559159zm-0.0108713 0.036326l0.00428763 0c0.000294802,0 0.000535397,0.000502723 0.000535397,0.00111758l0 0.00894283c0,0.000614852 -0.000240594,0.00111683 -0.000535397,0.00111683l-0.00428763 0c-0.000294802,0 -0.000535397,-0.000501981 -0.000535397,-0.00111683l0 -0.00894283c0,-0.000614852 0.000240594,-0.00111758 0.000535397,-0.00111758zm0.0111386 0l0.00428763 0c0.000294802,0 0.000535397,0.000502723 0.000535397,0.00111758l0 0.00894283c0,0.000614852 -0.000240594,0.00111683 -0.000535397,0.00111683l-0.00428763 0c-0.000294802,0 -0.000535397,-0.000501981 -0.000535397,-0.00111683l0 -0.00894283c0,-0.000614852 0.000240594,-0.00111758 0.000535397,-0.00111758zm-0.0114067 -0.0178834l0.00482377 0c0.00014703,0 0.000267327,0.00025099 0.000267327,0.000558416l0 0.0100604c0,0.000307426 -0.000120297,0.000558416 -0.000267327,0.000558416l-0.00482377 0c-0.00014703,0 -0.000267327,-0.00025099 -0.000267327,-0.000558416l0 -0.0100604c0,-0.000307426 0.000120297,-0.000558416 0.000267327,-0.000558416zm0.0111386 0l0.00482377 0c0.00014703,0 0.000267327,0.00025099 0.000267327,0.000558416l0 0.0100604c0,0.000307426 -0.000120297,0.000558416 -0.000267327,0.000558416l-0.00482377 0c-0.00014703,0 -0.000267327,-0.00025099 -0.000267327,-0.000558416l0 -0.0100604c0,-0.000307426 0.000120297,-0.000558416 0.000267327,-0.000558416z"/>
 </g>
</svg>
