<?xml version="1.0" encoding="UTF-8"?>
<!DOCTYPE svg PUBLIC "-//W3C//DTD SVG 1.1//EN" "http://www.w3.org/Graphics/SVG/1.1/DTD/svg11.dtd">
<!-- Creator: CorelDRAW -->
<svg xmlns="http://www.w3.org/2000/svg" xml:space="preserve" width="1.52524in" height="0.58822in" style="shape-rendering:geometricPrecision; text-rendering:geometricPrecision; image-rendering:optimizeQuality; fill-rule:evenodd; clip-rule:evenodd"
viewBox="0 0 0.488713 0.188476"
 xmlns:xlink="http://www.w3.org/1999/xlink">
 <defs>
  <style type="text/css">
   <![CDATA[
    .str0 {stroke:black;stroke-width:0.00222526}
    .fil0 {fill:black;fill-rule:nonzero}
   ]]>
  </style>
 </defs>
 <g id="Layer_x0020_1">
  <metadata id="CorelCorpID_0Corel-Layer"/>
  <path class="fil0 str0" d="M0.244512 0.118138l0.0081946 0c0.000249774,0 0.000454134,0.000426382 0.000454134,0.000948636l0 0.0170906c0,0.000522254 -0.00020436,0.000948636 -0.000454134,0.000948636l-0.0081946 0c-0.000249774,0 -0.000454134,-0.000426382 -0.000454134,-0.000948636l0 -0.0170906c0,-0.000522254 0.00020436,-0.000948636 0.000454134,-0.000948636zm-0.0189223 0l0.0081946 0c0.000249774,0 0.000454134,0.000426382 0.000454134,0.000948636l0 0.0170906c0,0.000522254 -0.00020436,0.000948636 -0.000454134,0.000948636l-0.0081946 0c-0.000249774,0 -0.000454134,-0.000426382 -0.000454134,-0.000948636l0 -0.0170906c0,-0.000522254 0.00020436,-0.000948636 0.000454134,-0.000948636zm0.0193777 0.0303803l0.00728381 0c0.000500809,0 0.00090953,0.000854025 0.00090953,0.00189853l0 0.0151921c0,0.00104451 -0.000408721,0.00189727 -0.00090953,0.00189727l-0.00728381 0c-0.000500809,0 -0.00090953,-0.000852763 -0.00090953,-0.00189727l0 -0.0151921c0,-0.00104451 0.000408721,-0.00189853 0.00090953,-0.00189853zm-0.0189223 0l0.00728381 0c0.000500809,0 0.00090953,0.000854025 0.00090953,0.00189853l0 0.0151921c0,0.00104451 -0.000408721,0.00189727 -0.00090953,0.00189727l-0.00728381 0c-0.000500809,0 -0.00090953,-0.000852763 -0.00090953,-0.00189727l0 -0.0151921c0,-0.00104451 0.000408721,-0.00189853 0.00090953,-0.00189853zm0.0184681 -0.0617105l0.00819208 0c0.000251035,0 0.000455396,0.000427643 0.000455396,0.000949897l0 0.0170881c0,0.000522254 -0.00020436,0.000949897 -0.000455396,0.000949897l-0.00819208 0c-0.000251035,0 -0.000455396,-0.000427643 -0.000455396,-0.000949897l0 -0.0170881c0,-0.000522254 0.00020436,-0.000949897 0.000455396,-0.000949897zm-0.0189223 0l0.00819208 0c0.000251035,0 0.000455396,0.000427643 0.000455396,0.000949897l0 0.0170881c0,0.000522254 -0.00020436,0.000949897 -0.000455396,0.000949897l-0.00819208 0c-0.000251035,0 -0.000455396,-0.000427643 -0.000455396,-0.000949897l0 -0.0170881c0,-0.000522254 0.00020436,-0.000949897 0.000455396,-0.000949897zm-0.0657965 0.0188554c0,-0.0063276 -0.000626958,-0.0500317 -2.39682e-005,-0.0626314 0.000601728,-0.012601 0.000913314,-0.0220659 0.000913314,-0.0283935 0,-0.00129302 -0.00109623,-0.00195404 -0.00321678,-0.00195404 -0.00179131,0 -0.00453251,0.000137502 -0.00818829,0.000412505 -0.00369236,0.000275004 -0.00643483,0.000412505 -0.00818955,0.000412505 -0.00215588,0 -0.00530076,-8.19965e-005 -0.00950402,-0.000247251 -0.00416794,-0.000165254 -0.00727498,-0.000247251 -0.00935895,-0.000247251 -0.00142548,0 -0.0027412,0.00104577 -0.00394845,0.00313605 -0.0141475,0.0227256 -0.0248222,0.0397557 -0.032024,0.0510371 -0.00259487,0.00401657 -0.00427643,0.0060526 -0.00504467,0.0060526 -0.00149864,0 -0.00336312,-0.00176103 -0.00555684,-0.00525534l-0.0312924 -0.0516691c-0.00142548,-0.00225553 -0.00252297,-0.00338456 -0.00332653,-0.00338456 -0.00391186,0 -0.00979795,0.000109749 -0.017657,0.000275004 -0.00786031,0.000193007 -0.0137451,0.000302756 -0.017657,0.000302756 -0.00307045,0 -0.00457036,0.000523516 -0.00453377,0.00159704l0.000109749 0.00137502c0.000585329,0.0088039 0.000914576,0.015462 0.000987742,0.0199188 0.000693816,0.017141 0.00105965,0.0288337 0.00105965,0.0350516 0,0.00586085 -0.00036583,0.0146635 -0.00113281,0.026413 -0.000731661,0.0117204 -0.00109749,0.0205243 -0.00109749,0.0263852 0,0.000851502 0.000146332,0.00145828 0.000475579,0.00181401 0.000329247,0.000358261 0.0011694,0.000523516 0.00263272,0.000523516l0.0357517 0c0.00201081,0 0.00299855,-0.00093476 0.00299855,-0.00283329 0,-0.00525534 -0.000182915,-0.013151 -0.000548746,-0.0236894 -0.000329247,-0.0105372 -0.000512163,-0.0184328 -0.000512163,-0.0236881 0,-0.00107226 0.000256081,-0.00187078 0.000731661,-0.00233879 0.000512163,0.000330509 0.000840148,0.000605512 0.000986481,0.000880516 0.00332779,0.00531085 0.00837247,0.0139495 0.0150987,0.0258617 0.00628724,0.0113079 0.0113319,0.0198923 0.0152072,0.0258074 0.000695078,0.00107352 0.00292538,0.00162353 0.00661775,0.00162353 0.00252171,0 0.00394718,-2.77526e-005 0.00431301,-8.19965e-005 0.00105965,-0.00022076 0.00193764,-0.000962512 0.0026693,-0.0021748 0.00511784,-0.0095179 0.0102723,-0.0190661 0.0154267,-0.028613 0.00877362,-0.016287 0.0135622,-0.0245964 0.0143305,-0.0249257 0,0.00624435 0.000315371,0.0177075 0.00102811,0.0301987 0.000711477,0.01249 0.00105965,0.0218729 0.00105965,0.0280895 0,0.00586085 -0.00036583,0.014637 -0.00113281,0.0263587 -0.000731661,0.0117204 -0.00109749,0.0204688 -0.00109749,0.0262742 0,0.00140403 0.00102433,0.00222904 0.0031083,0.00250405 0.00263146,0.000330509 0.00877362,0.000495763 0.0183874,0.000495763 0.0111503,0 0.0178765,-0.000165254 0.0201434,-0.000495763 0.00193764,-0.000275004 0.00288754,-0.00121102 0.00288754,-0.00283455 0,-0.00418182 -0.000182915,-0.0104539 -0.000510901,-0.0188188 -0.00036583,-0.00833589 -0.000548746,-0.0146092 -0.000548746,-0.0188188 0,-0.00214578 0.000766982,-0.00335555 0.00234005,-0.00363181 0.00252171,-0.000412505 0.0112222,-0.000632003 0.0261379,-0.000632003 0.0148779,0 0.0235052,0.000219498 0.0259185,0.000632003 0.00157181,0.000330509 0.00237664,0.00154153 0.00237664,0.00363181 0,0.00426508 -0.000292664,0.0106482 -0.000804827,0.0191493 -0.000547484,0.00853016 -0.000803565,0.014912 -0.000803565,0.0191493 0,0.00112777 0.000986481,0.00184303 0.00292412,0.00217354 0.00197422,0.000330509 0.00855412,0.000495763 0.0197775,0.000495763 0.00793221,0 0.0140744,-0.000165254 0.018424,-0.000495763 0.00171814,-0.000109749 0.00270588,-0.000248512 0.00299855,-0.000413767 0.00062065,-0.000247251 0.000949897,-0.000962512 0.000949897,-0.00209028 0,-0.00580535 -0.00036583,-0.0145537 -0.00113281,-0.0262742 -0.000731661,-0.0117217 -0.00109749,-0.0204979 -0.00109749,-0.0263587 0,-0.00621659 0.000329247,-0.0155718 0.000987742,-0.0280352 0.000693816,-0.01249 0.00102306,-0.0217896 0.00102306,-0.027981 0,-0.00129302 -0.00102306,-0.00192502 -0.00310704,-0.00192502 -0.00212055,0 -0.00533734,8.32579e-005 -0.00957845,0.00022076 -0.00423985,0.000165254 -0.00738347,0.000247251 -0.00946744,0.000247251 -0.00215714,0 -0.00533734,-8.19965e-005 -0.00957845,-0.000247251 -0.00427643,-0.000137502 -0.00742131,-0.00022076 -0.00950402,-0.00022076 -0.00175472,0 -0.0026693,0.000825011 -0.0026693,0.00247629 0,0.00393457 0.000256081,0.00979542 0.000768244,0.0176355 0.000474318,0.00781363 0.000730399,0.0136467 0.000730399,0.0175258 0,0.00187078 -0.000840148,0.00297079 -0.00255829,0.0033013 -0.0024498,0.000440258 -0.0112966,0.000633265 -0.0265769,0.000633265 -0.0164144,0 -0.0255539,-0.000193007 -0.0274184,-0.000633265 -0.00135231,-0.000330509 -0.00201081,-0.00143052 -0.00201081,-0.0033013 0,-0.00135483 4.28905e-005,-0.00293547 0.000129933,-0.00473687zm0.0587852 -0.0737236c0,0.00275004 -0.00118706,0.00432689 -0.00354099,0.00470281 -0.000389799,5.55053e-005 -0.00413514,0.000349431 -0.0112373,0.000907007 -0.00428274,0.00034817 -0.0106431,0.000766982 -0.0191178,0.00125644 0.000500809,0.00177239 0.00203982,0.0031247 0.00461703,0.00404684 0.00209532,0.000766982 0.00448836,0.00114417 0.00715766,0.00114417 0.00322688,0 0.00647141,-0.000642095 0.00973487,-0.00195404 0.00137249,-0.000655972 0.00274499,-0.00131194 0.00411622,-0.00196792 0.000760675,0.000278788 0.00203982,0.00166137 0.0038387,0.00417299 0.00179888,0.00251161 0.00268822,0.00410235 0.00268822,0.00478607 0,0.000181654 -0.000277526,0.000502071 -0.000814919,0.000936021 -0.00441393,0.00357252 -0.0112739,0.00535752 -0.0205824,0.00535752 -0.00862224,0 -0.0155755,-0.00189727 -0.0208612,-0.0056792 -0.00543195,-0.00385131 -0.00815802,-0.00898681 -0.00815802,-0.0154191 0,-0.00626705 0.00242836,-0.0114026 0.00728759,-0.0154078 0.00498791,-0.00414524 0.0116258,-0.00622416 0.0198772,-0.00622416 0.0069533,0 0.0128495,0.00191241 0.0177075,0.00573597 0.00485924,0.00380968 0.00728759,0.00834472 0.00728759,0.0136064zm-0.0190244 -0.00249774c0,-0.00168913 -0.000797258,-0.00316885 -0.00239177,-0.00445178 -0.00159452,-0.00128419 -0.00348674,-0.00192629 -0.00569308,-0.00192629 -0.00228076,0 -0.00417173,0.000726615 -0.00565523,0.00217732 -0.00137249,0.00132582 -0.00205874,0.00290267 -0.00205874,0.00470281 0,0.000725353 0.000500809,0.00110254 0.00152135,0.00110254 0.0026693,0 0.00684229,-0.000321678 0.0124975,-0.000948636 0.00118706,-0.000126148 0.00177995,-0.000349431 0.00177995,-0.000655972zm0.0613384 0.0127271c0,0.000808611 -0.000129933,0.00205117 -0.000407459,0.00371129 -0.000278788,0.00166137 -0.000408721,0.0028888 -0.000408721,0.00365578 0,0.00078212 -0.000111011,0.00128545 -0.000333032,0.0014936 -0.00020436,0.000223283 -0.000797258,0.000531085 -0.00177995,0.000949897 -0.00467254,0.00192502 -0.00984714,0.00290267 -0.015539,0.00290267 -0.0104766,0 -0.0157055,-0.00301495 -0.0157055,-0.00904358 0,-0.00180014 9.20883e-005,-0.00449341 0.000277526,-0.00810756 0.000185438,-0.00361415 0.000278788,-0.00632256 0.000278788,-0.0081227 0,-0.00119967 -0.000927191,-0.00180014 -0.00278157,-0.00180014 -0.000148855,0 -0.000370876,0 -0.00070517,0 -0.000333032,2.77526e-005 -0.000556314,4.28905e-005 -0.000703908,4.28905e-005 -0.00137249,0 -0.00205874,-0.000363307 -0.00205874,-0.00110254 0,-0.000432689 3.78445e-005,-0.00110254 0.000129933,-0.00199567 9.33498e-005,-0.000908269 0.000129933,-0.00157686 0.000129933,-0.00200954 0,-0.000572714 -3.6583e-005,-0.00145071 -0.000129933,-0.00262389 -9.20883e-005,-0.00115804 -0.000129933,-0.0020373 -0.000129933,-0.00261001 0,-0.0005437 0.00115047,-0.000851502 0.00346782,-0.000893131 0.00129807,-2.77526e-005 0.00200198,-0.000306541 0.00211425,-0.000823749 0.000222021,-0.00103189 0.000296449,-0.00266425 0.000222021,-0.00491096 -0.000148855,-0.00351702 -0.000222021,-0.00519227 -0.000222021,-0.00502449 0,-0.00316759 0.000407459,-0.00474444 0.00120472,-0.00474444 0.000982696,0 0.00237411,0.000166516 0.00417173,0.000488194 0.00207766,0.000362046 0.0035044,0.000557576 0.00430292,0.000614343 0.00183546,0.00019553 0.00463469,0.000460442 0.00836238,0.000780859 0.000908269,5.67668e-005 0.00135357,0.000278788 0.00135357,0.000697601 0,0.00108992 -0.000111011,0.00273616 -0.000351954,0.00494123 -0.000223283,0.00220381 -0.000353216,0.00387906 -0.000353216,0.00499548 0,0.00132582 0.000519731,0.00199567 0.00157686,0.00199567 0.00126022,0 0.00318903,-4.1629e-005 0.00576624,-0.000126148 0.00255829,-6.93816e-005 0.00450602,-0.000111011 0.00580409,-0.000111011 0.000797258,0 0.00120472,0.00019553 0.00120472,0.000614343 0,0.000626958 -9.20883e-005,0.00156298 -0.000277526,0.00281816 -0.000185438,0.00125644 -0.000278788,0.0021912 -0.000278788,0.00281942 0,0.000655972 1.89223e-005,0.00160461 5.55053e-005,0.00285978 3.78445e-005,0.00125644 5.55053e-005,0.00220634 5.55053e-005,0.00286231 0,0.000571452 -0.00051847,0.000864117 -0.00157559,0.000864117 -0.00072283,0 -0.00192881,-2.77526e-005 -0.00363434,-6.93816e-005 -0.00170553,-4.1629e-005 -0.00291151,-5.55053e-005 -0.00363434,-5.55053e-005l-0.00407964 0c-0.000537392,0 -0.000814919,0.000600466 -0.000814919,0.00180014 0,0.000655972 0,0.00161848 0,0.00290267 3.6583e-005,0.00129681 5.55053e-005,0.00227446 5.55053e-005,0.00290267 0,0.00228833 0.000333032,0.00386519 0.0010382,0.00474444 0.000963774,0.00117192 0.00289258,0.00175851 0.00574732,0.00175851 0.00090953,0 0.0022076,-0.000167777 0.0038942,-0.000474318 0.00166894,-0.000320417 0.002856,-0.000474318 0.00354225,-0.000474318 0.000759413,0 0.00114921,0.000306541 0.00114921,0.000907007zm0.0608262 0.123579c0,0.00621029 -0.00252171,0.0112474 -0.00756512,0.0151265 -0.00506234,0.00386645 -0.0117003,0.00580535 -0.019915,0.00580535 -0.00797384,0 -0.0145184,-0.00191241 -0.0196741,-0.00573471 -0.0051355,-0.00381094 -0.00771397,-0.00872316 -0.00771397,-0.0147089 0,-0.0063213 0.0024662,-0.0114581 0.0073986,-0.0153926 0.00491474,-0.00394971 0.0115893,-0.00591762 0.0199895,-0.00591762 0.00817694,0 0.0148149,0.00194016 0.0198772,0.00579147 0.00508126,0.00385257 0.00760296,0.00886193 0.00760296,0.0150306zm-0.0178197 0c0,-0.00216345 -0.000871685,-0.00406198 -0.00265164,-0.00570822 -0.00177995,-0.0016475 -0.00407964,-0.00246999 -0.00689779,-0.00246999 -0.002856,0 -0.00520993,0.000837625 -0.00706431,0.00252675 -0.00174337,0.00158947 -0.00261506,0.00346025 -0.00261506,0.00565145 0,0.00220381 0.000871685,0.00410235 0.00261506,0.0056792 0.00185438,0.00168913 0.00420831,0.00252549 0.00706431,0.00252549 0.00281816,0 0.00515442,-0.000836364 0.00700881,-0.00252549 0.00170679,-0.00157686 0.00254063,-0.00347539 0.00254063,-0.0056792zm0.0607455 0.00813531c0,0.000809873 -0.000129933,0.00205117 -0.000407459,0.00371129 -0.000278788,0.00166137 -0.000408721,0.00289006 -0.000408721,0.00365704 0,0.000780859 -0.000111011,0.00128419 -0.000333032,0.0014936 -0.00020436,0.000222021 -0.000797258,0.000529823 -0.00177995,0.000948636 -0.00467254,0.00192502 -0.00984714,0.00290267 -0.015539,0.00290267 -0.0104766,0 -0.0157055,-0.00301495 -0.0157055,-0.00904358 0,-0.00180014 9.20883e-005,-0.00449341 0.000277526,-0.00810756 0.000185438,-0.00361415 0.000278788,-0.0063213 0.000278788,-0.00812143 0,-0.00120093 -0.000927191,-0.00180014 -0.00278157,-0.00180014 -0.000148855,0 -0.000370876,0 -0.00070517,0 -0.000333032,2.77526e-005 -0.000556314,4.1629e-005 -0.000703908,4.1629e-005 -0.00137249,0 -0.00205874,-0.000363307 -0.00205874,-0.00110254 0,-0.000432689 3.78445e-005,-0.00110254 0.000129933,-0.00199567 9.33498e-005,-0.000907007 0.000129933,-0.00157686 0.000129933,-0.00200954 0,-0.000571452 -3.6583e-005,-0.00145071 -0.000129933,-0.00262389 -9.20883e-005,-0.00115804 -0.000129933,-0.0020373 -0.000129933,-0.00261001 0,-0.0005437 0.00115047,-0.000851502 0.00346782,-0.000893131 0.00129807,-2.77526e-005 0.00200198,-0.000306541 0.00211425,-0.000822488 0.000222021,-0.00103316 0.000296449,-0.00266552 0.000222021,-0.00491222 -0.000148855,-0.00351702 -0.000222021,-0.00519101 -0.000222021,-0.00502449 0,-0.00316759 0.000407459,-0.00474444 0.00120472,-0.00474444 0.000982696,0 0.00237411,0.000167777 0.00417173,0.000488194 0.00207766,0.000363307 0.0035044,0.000558837 0.00430292,0.000614343 0.00183546,0.00019553 0.00463469,0.000460442 0.00836238,0.000780859 0.000908269,5.67668e-005 0.00135357,0.000280049 0.00135357,0.000698862 0,0.00108866 -0.000111011,0.0027349 -0.000351954,0.00493997 -0.000223283,0.00220507 -0.000353216,0.00387906 -0.000353216,0.00499548 0,0.00132582 0.000519731,0.00199567 0.00157686,0.00199567 0.00126022,0 0.00318903,-4.1629e-005 0.00576624,-0.000126148 0.00255829,-6.93816e-005 0.00450602,-0.000111011 0.00580409,-0.000111011 0.000797258,0 0.00120472,0.00019553 0.00120472,0.000614343 0,0.000628219 -9.20883e-005,0.00156298 -0.000277526,0.00281942 -0.000185438,0.00125518 -0.000278788,0.0021912 -0.000278788,0.00281816 0,0.000655972 1.89223e-005,0.00160461 5.55053e-005,0.00286105 3.78445e-005,0.00125518 5.55053e-005,0.00220507 5.55053e-005,0.00286105 0,0.000571452 -0.00051847,0.000865378 -0.00157559,0.000865378 -0.00072283,0 -0.00192881,-2.77526e-005 -0.00363434,-7.06431e-005 -0.00170553,-4.1629e-005 -0.00291151,-5.55053e-005 -0.00363434,-5.55053e-005l-0.00407964 0c-0.000537392,0 -0.000814919,0.000600466 -0.000814919,0.00180014 0,0.000655972 0,0.00161848 0,0.00290267 3.6583e-005,0.00129807 5.55053e-005,0.00227446 5.55053e-005,0.00290267 0,0.00228833 0.000333032,0.00386519 0.0010382,0.00474444 0.000963774,0.00117318 0.00289258,0.00175851 0.00574732,0.00175851 0.00090953,0 0.0022076,-0.000167777 0.0038942,-0.000474318 0.00166894,-0.000320417 0.002856,-0.000474318 0.00354225,-0.000474318 0.000759413,0 0.00114921,0.000306541 0.00114921,0.000907007zm0.0554788 -0.0102294c0,0.00275004 -0.00118706,0.00432689 -0.00354099,0.00470281 -0.000389799,5.55053e-005 -0.00413514,0.000349431 -0.0112373,0.000907007 -0.00428274,0.000349431 -0.0106431,0.000766982 -0.0191178,0.00125644 0.000500809,0.00177239 0.00203982,0.00312596 0.00461703,0.00404684 0.00209532,0.000768244 0.00448836,0.00114417 0.00715766,0.00114417 0.00322688,0 0.00647141,-0.000640834 0.00973487,-0.00195404 0.00137249,-0.000655972 0.00274499,-0.00131194 0.00411622,-0.00196792 0.000760675,0.000280049 0.00203982,0.00166137 0.0038387,0.00417299 0.00179888,0.00251161 0.00268822,0.00410361 0.00268822,0.00478733 0,0.000180392 -0.000277526,0.000502071 -0.000814919,0.00093476 -0.00441393,0.00357252 -0.0112739,0.00535878 -0.0205824,0.00535878 -0.00862224,0 -0.0155755,-0.00189853 -0.0208612,-0.0056792 -0.00543195,-0.00385257 -0.00815802,-0.00898807 -0.00815802,-0.0154204 0,-0.00626579 0.00242836,-0.0114026 0.00728759,-0.0154065 0.00498791,-0.00414524 0.0116258,-0.00622542 0.0198772,-0.00622542 0.0069533,0 0.0128495,0.00191241 0.0177075,0.00573597 0.00485924,0.00380968 0.00728759,0.00834472 0.00728759,0.0136064zm-0.0190244 -0.00249774c0,-0.00168913 -0.000797258,-0.00316759 -0.00239177,-0.00445178 -0.00159452,-0.00128419 -0.00348674,-0.00192629 -0.00569308,-0.00192629 -0.00228076,0 -0.00417173,0.000726615 -0.00565523,0.00217732 -0.00137249,0.00132582 -0.00205874,0.00290267 -0.00205874,0.00470281 0,0.000725353 0.000500809,0.00110254 0.00152135,0.00110254 0.0026693,0 0.00684229,-0.000320417 0.0124975,-0.000948636 0.00118706,-0.000126148 0.00177995,-0.000349431 0.00177995,-0.000655972zm0.0447612 8.32579e-005c0,0.00745285 3.78445e-005,0.0131598 0.000111011,0.0171373 0,0.000628219 5.55053e-005,0.001703 0.000167777,0.00322435 0.000111011,0.0013952 0.000166516,0.00246999 0.000166516,0.00323697 0,0.000572714 -0.000464226,0.000907007 -0.00135357,0.00101928 -0.00163236,0.000222021 -0.00456153,0.000320417 -0.00880768,0.000320417 -0.00433951,0 -0.00712108,-9.83958e-005 -0.00830687,-0.000320417 -0.000797258,-0.000140025 -0.00126148,-0.000503332 -0.00135357,-0.00110254 0,-8.32579e-005 0,-0.000669848 0,-0.00175851 0,-0.00242836 1.76608e-005,-0.00605765 9.20883e-005,-0.0108992 7.44276e-005,-0.00484284 0.000111011,-0.00845699 0.000111011,-0.0108576 0,-0.0114429 1.89223e-005,-0.0166629 5.67668e-005,-0.0156575 -0.000112272,-0.00601476 -0.000556314,-0.0112058 -0.00135483,-0.015573 -7.31661e-005,-0.000293926 -0.000111011,-0.000531085 -0.000111011,-0.000697601 0,-0.000600466 0.000464226,-0.000894392 0.00140908,-0.000894392l0.0193966 0c0.000908269,0 0.00131573,0.000280049 0.00126022,0.000852763l-5.55053e-005 0.00073923c-0.000946113,0.0117785 -0.001428,0.0221882 -0.001428,0.0312306zm0.0417387 -0.00845699c0,0.000266173 -0.000277526,0.000643357 -0.00081618,0.0011038 -0.00101928,-0.00019553 -0.0020209,-0.000293926 -0.00304018,-0.000293926 -0.00213317,0 -0.00393078,0.000363307 -0.00537771,0.00107478 -0.00174337,0.000808611 -0.00261506,0.00196792 -0.00261506,0.00347539 0,0.000948636 0.000927191,0.00216218 0.00278157,0.00362803 0.00278157,0.00221895 0.00450602,0.00369741 0.00515569,0.00446565 0.00185438,0.00206505 0.00276265,0.004284 0.00276265,0.00665685 0,0.0013952 -0.000351954,0.00285978 -0.00107605,0.00442276 -0.000833841,0.00171688 -0.00189096,0.00297332 -0.00315245,0.00375418 -0.00268822,0.00174463 -0.00582175,0.00322435 -0.00940058,0.00442402 -0.00387528,0.00124256 -0.00743519,0.00186952 -0.0106986,0.00186952 -0.000724092,0 -0.00235519,-0.00147972 -0.00485798,-0.00442276 -0.00252171,-0.00295818 -0.00378319,-0.00477346 -0.00378319,-0.00542943 0,-0.000237159 0.00020436,-0.00039106 0.000592897,-0.000445304 0.00254063,-0.000349431 0.00510018,-0.000712738 0.00765847,-0.00106091 0.00318903,-0.000768244 0.00478355,-0.00202468 0.00478355,-0.00376805 0,-0.00120093 -0.000927191,-0.00258226 -0.00276265,-0.00415911 -0.00330004,-0.00276265 -0.00502449,-0.00421462 -0.00517335,-0.0043824 -0.00183546,-0.00196792 -0.00276265,-0.00403296 -0.00276265,-0.00620902 0,-0.00408973 0.00274499,-0.00756386 0.00825137,-0.0104249 0.0049324,-0.00253937 0.0101991,-0.00380968 0.0158165,-0.00380968 0.000575237,0 0.00200324,0.00146458 0.004284,0.00439501 0.00228076,0.00293169 0.00342998,0.00464731 0.00342998,0.0051355zm-0.281254 -0.0346441l0.00728381 0c0.000500809,0 0.00090953,0.000854025 0.00090953,0.00189727l0 0.0151933c0,0.00104325 -0.000408721,0.00189727 -0.00090953,0.00189727l-0.00728381 0c-0.000500809,0 -0.00090953,-0.000854025 -0.00090953,-0.00189727l0 -0.0151933c0,-0.00104325 0.000408721,-0.00189727 0.00090953,-0.00189727zm-0.0605512 0l0.00728381 0c0.000500809,0 0.00090953,0.000854025 0.00090953,0.00189727l0 0.0151933c0,0.00104325 -0.000408721,0.00189727 -0.00090953,0.00189727l-0.00728381 0c-0.000500809,0 -0.00090953,-0.000854025 -0.00090953,-0.00189727l0 -0.0151933c0,-0.00104325 0.000408721,-0.00189727 0.00090953,-0.00189727zm0.0403675 0l0.00728381 0c0.000500809,0 0.00090953,0.000854025 0.00090953,0.00189727l0 0.0151933c0,0.00104325 -0.000408721,0.00189727 -0.00090953,0.00189727l-0.00728381 0c-0.000500809,0 -0.00090953,-0.000854025 -0.00090953,-0.00189727l0 -0.0151933c0,-0.00104325 0.000408721,-0.00189727 0.00090953,-0.00189727zm-0.0201837 0l0.00728381 0c0.000500809,0 0.00090953,0.000854025 0.00090953,0.00189727l0 0.0151933c0,0.00104325 -0.000408721,0.00189727 -0.00090953,0.00189727l-0.00728381 0c-0.000500809,0 -0.00090953,-0.000854025 -0.00090953,-0.00189727l0 -0.0151933c0,-0.00104325 0.000408721,-0.00189727 0.00090953,-0.00189727zm-0.039106 0l0.00728381 0c0.000500809,0 0.00090953,0.000854025 0.00090953,0.00189727l0 0.0151933c0,0.00104325 -0.000408721,0.00189727 -0.00090953,0.00189727l-0.00728381 0c-0.000500809,0 -0.00090953,-0.000854025 -0.00090953,-0.00189727l0 -0.0151933c0,-0.00104325 0.000408721,-0.00189727 0.00090953,-0.00189727zm0.0184669 -0.0617105l0.0081946 0c0.000249774,0 0.000454134,0.000426382 0.000454134,0.000948636l0 0.0170906c0,0.000522254 -0.00020436,0.000948636 -0.000454134,0.000948636l-0.0081946 0c-0.000249774,0 -0.000454134,-0.000426382 -0.000454134,-0.000948636l0 -0.0170906c0,-0.000522254 0.00020436,-0.000948636 0.000454134,-0.000948636zm-0.0189223 0l0.0081946 0c0.000249774,0 0.000454134,0.000426382 0.000454134,0.000948636l0 0.0170906c0,0.000522254 -0.00020436,0.000948636 -0.000454134,0.000948636l-0.0081946 0c-0.000249774,0 -0.000454134,-0.000426382 -0.000454134,-0.000948636l0 -0.0170906c0,-0.000522254 0.00020436,-0.000948636 0.000454134,-0.000948636zm0.0193777 0.0303803l0.00728381 0c0.000500809,0 0.00090953,0.000854025 0.00090953,0.00189853l0 0.0151921c0,0.00104451 -0.000408721,0.00189727 -0.00090953,0.00189727l-0.00728381 0c-0.000500809,0 -0.00090953,-0.000852763 -0.00090953,-0.00189727l0 -0.0151921c0,-0.00104451 0.000408721,-0.00189853 0.00090953,-0.00189853zm-0.0189223 0l0.00728381 0c0.000500809,0 0.00090953,0.000854025 0.00090953,0.00189853l0 0.0151921c0,0.00104451 -0.000408721,0.00189727 -0.00090953,0.00189727l-0.00728381 0c-0.000500809,0 -0.00090953,-0.000852763 -0.00090953,-0.00189727l0 -0.0151921c0,-0.00104451 0.000408721,-0.00189853 0.00090953,-0.00189853zm0.0184681 -0.0617105l0.00819208 0c0.000251035,0 0.000455396,0.000427643 0.000455396,0.000949897l0 0.0170881c0,0.000522254 -0.00020436,0.000949897 -0.000455396,0.000949897l-0.00819208 0c-0.000251035,0 -0.000455396,-0.000427643 -0.000455396,-0.000949897l0 -0.0170881c0,-0.000522254 0.00020436,-0.000949897 0.000455396,-0.000949897zm-0.0189223 0l0.00819208 0c0.000251035,0 0.000455396,0.000427643 0.000455396,0.000949897l0 0.0170881c0,0.000522254 -0.00020436,0.000949897 -0.000455396,0.000949897l-0.00819208 0c-0.000251035,0 -0.000455396,-0.000427643 -0.000455396,-0.000949897l0 -0.0170881c0,-0.000522254 0.00020436,-0.000949897 0.000455396,-0.000949897zm0.0178765 0.122634l0.00656729 0c0.000798519,0 0.00144818,0.00130564 0.00144818,0.00290141l0 0.0274221c0,0.00159704 -0.000649664,0.00290267 -0.00144818,0.00290267l-0.00656729 0c-0.000795996,0 -0.00144566,-0.00130564 -0.00144566,-0.00290267l0 -0.0274221c0,-0.00159578 0.000649664,-0.00290141 0.00144566,-0.00290141zm-0.0150924 0l0.00963143 0c0.00116813,0 0.00212308,0.00130564 0.00212308,0.00290141l0 0.0274221c0,0.00159704 -0.000954943,0.00290267 -0.00212308,0.00290267l-0.00963143 0c-0.00116687,0 -0.00212182,-0.00130564 -0.00212182,-0.00290267l0 -0.0274221c0,-0.00159578 0.000954943,-0.00290141 0.00212182,-0.00290141z"/>
 </g>
</svg>
