<?xml version="1.0" encoding="UTF-8"?>
<!DOCTYPE svg PUBLIC "-//W3C//DTD SVG 1.1//EN" "http://www.w3.org/Graphics/SVG/1.1/DTD/svg11.dtd">
<!-- Creator: CorelDRAW -->
<svg xmlns="http://www.w3.org/2000/svg" xml:space="preserve" width="1.52524in" height="0.58822in" style="shape-rendering:geometricPrecision; text-rendering:geometricPrecision; image-rendering:optimizeQuality; fill-rule:evenodd; clip-rule:evenodd"
viewBox="0 0 0.975341 0.376148"
 xmlns:xlink="http://www.w3.org/1999/xlink">
 <defs>
  <style type="text/css">
   <![CDATA[
    .str0 {stroke:black;stroke-width:0.00444102}
    .fil0 {fill:black;fill-rule:nonzero}
   ]]>
  </style>
 </defs>
 <g id="Layer_x0020_1">
  <metadata id="CorelCorpID_0Corel-Layer"/>
  <path class="fil0 str0" d="M0.318908 0.210876c0,-0.0126282 -0.00125124,-0.09985 -4.78342e-005,-0.124996 0.00120089,-0.0251482 0.00182273,-0.0440376 0.00182273,-0.0566659 0,-0.00258053 -0.00218778,-0.00389974 -0.00641985,-0.00389974 -0.00357497,0 -0.00904569,0.000274417 -0.0163417,0.000823251 -0.00736898,0.000548834 -0.0128422,0.000823251 -0.0163442,0.000823251 -0.00430256,0 -0.0105789,-0.000163643 -0.0189675,-0.000493447 -0.00831811,-0.000329804 -0.0145189,-0.000493447 -0.018678,-0.000493447 -0.00284487,0 -0.00547072,0.00208708 -0.00788005,0.00625872 -0.0282347,0.0453543 -0.0495386,0.0793418 -0.0639115,0.101857 -0.00517868,0.008016 -0.00853462,0.0120794 -0.0100678,0.0120794 -0.00299089,0 -0.00671189,-0.00351455 -0.01109,-0.0104883l-0.0624513 -0.103118c-0.00284487,-0.00450145 -0.00503518,-0.00675469 -0.00663888,-0.00675469 -0.00780704,0 -0.0195541,0.00021903 -0.0352387,0.000548834 -0.0156871,0.000385191 -0.0274316,0.000604221 -0.0352387,0.000604221 -0.00612781,0 -0.00912122,0.0010448 -0.00904821,0.00318727l0.00021903 0.00274417c0.00116816,0.0175702 0.00182525,0.0308581 0.00197127,0.0397527 0.00138467,0.034209 0.00211477,0.0575445 0.00211477,0.0699537 0,0.0116967 -0.0007301,0.0292644 -0.00226079,0.0527132 -0.0014602,0.0233909 -0.0021903,0.0409612 -0.0021903,0.0526579 0,0.00169937 0.00029204,0.00291033 0.000949131,0.00362029 0.00065709,0.000714995 0.0023338,0.0010448 0.00525421,0.0010448l0.0713509 0c0.00401303,0 0.00598431,-0.00186553 0.00598431,-0.0056545 0,-0.0104883 -0.00036505,-0.0262459 -0.00109515,-0.0472778 -0.00065709,-0.0210294 -0.00102214,-0.036787 -0.00102214,-0.0472753 0,-0.00213995 0.00051107,-0.00373358 0.0014602,-0.00466761 0.00102214,0.000659608 0.00167671,0.00120844 0.00196875,0.00175728 0.0066414,0.010599 0.0167092,0.0278395 0.030133,0.0516131 0.0125477,0.0225677 0.0226155,0.0396998 0.0303495,0.0515048 0.00138719,0.00214247 0.00583829,0.00324014 0.0132073,0.00324014 0.00503266,0 0.00787753,-5.53869e-005 0.00860763,-0.000163643 0.00211477,-0.000440578 0.00386701,-0.00192092 0.00532722,-0.00434032 0.0102139,-0.0189952 0.0205007,-0.0380508 0.0307876,-0.0571039 0.0175098,-0.0325046 0.0270666,-0.0490879 0.0285998,-0.049745 0,0.0124621 0.000629397,0.0353394 0.00205183,0.0602685 0.00141992,0.0249266 0.00211477,0.0436525 0.00211477,0.0560591 0,0.0116967 -0.0007301,0.0292116 -0.00226079,0.052605 -0.0014602,0.0233909 -0.0021903,0.0408504 -0.0021903,0.0524363 0,0.00280207 0.00204428,0.00444858 0.00620334,0.00499741 0.00525169,0.000659608 0.0175098,0.000989412 0.0366964,0.000989412 0.022253,0 0.0356767,-0.000329804 0.0402008,-0.000989412 0.00386701,-0.000548834 0.00576276,-0.00241688 0.00576276,-0.00565702 0,-0.0083458 -0.00036505,-0.0208632 -0.00101962,-0.0375574 -0.0007301,-0.0166362 -0.00109515,-0.0291562 -0.00109515,-0.0375574 0,-0.00428242 0.00153069,-0.00669678 0.00467012,-0.00724813 0.00503266,-0.000823251 0.0223965,-0.00126131 0.0521644,-0.00126131 0.0296924,0 0.0469102,0.00043806 0.0517264,0.00126131 0.00313691,0.000659608 0.00474314,0.00307649 0.00474314,0.00724813 0,0.00851196 -0.00058408,0.021251 -0.00160622,0.038217 -0.00109263,0.0170239 -0.0016037,0.0297604 -0.0016037,0.038217 0,0.00225072 0.00196875,0.0036782 0.00583577,0.0043378 0.00394002,0.000659608 0.0170718,0.000989412 0.0394707,0.000989412 0.0158306,0 0.0280887,-0.000329804 0.0367694,-0.000989412 0.00342895,-0.00021903 0.00540023,-0.000495965 0.00598431,-0.000825769 0.00123865,-0.000493447 0.00189574,-0.00192092 0.00189574,-0.00417164 0,-0.0115859 -0.0007301,-0.0290454 -0.00226079,-0.0524363 -0.0014602,-0.0233934 -0.0021903,-0.0409083 -0.0021903,-0.052605 0,-0.0124067 0.00065709,-0.0310771 0.00197127,-0.0559509 0.00138467,-0.0249266 0.00204176,-0.0434863 0.00204176,-0.0558426 0,-0.00258053 -0.00204176,-0.00384184 -0.00620082,-0.00384184 -0.00423206,0 -0.0106519,0.000166161 -0.019116,0.000440578 -0.00846161,0.000329804 -0.0147354,0.000493447 -0.0188945,0.000493447 -0.00430507,0 -0.0106519,-0.000163643 -0.019116,-0.000493447 -0.00853462,-0.000274417 -0.014811,-0.000440578 -0.0189675,-0.000440578 -0.00350196,0 -0.00532722,0.0016465 -0.00532722,0.00494202 0,0.00785236 0.00051107,0.0195491 0.00153321,0.0351959 0.000946613,0.0155939 0.00145768,0.0272353 0.00145768,0.0349768 0,0.00373358 -0.00167671,0.00592892 -0.00510567,0.00658853 -0.00488916,0.000878638 -0.022545,0.00126383 -0.0530405,0.00126383 -0.0327588,0 -0.0509988,-0.000385191 -0.0547198,-0.00126383 -0.00269885,-0.000659608 -0.00401303,-0.00285494 -0.00401303,-0.00658853 0,-0.00270389 8.5598e-005,-0.00585843 0.000259312,-0.00945354zm0.11732 -0.147133c0,0.00548834 -0.00236905,0.00863533 -0.00706687,0.00938557 -0.000777935,0.000110774 -0.00825265,0.000697372 -0.0224267,0.00181015 -0.00854721,0.000694854 -0.0212409,0.00153069 -0.038154,0.00250752 0.000999482,0.00353721 0.00407094,0.00623606 0.00921437,0.00807642 0.00418171,0.00153069 0.00895758,0.00228345 0.0142848,0.00228345 0.00643999,0 0.0129152,-0.00128145 0.0194282,-0.00389974 0.00273914,-0.00130915 0.00547827,-0.00261829 0.00821489,-0.00392744 0.00151811,0.000556387 0.00407094,0.00331566 0.00766102,0.00832818 0.00359008,0.00501252 0.00536498,0.00818719 0.00536498,0.00955173 0,0.000362533 -0.000553869,0.001002 -0.00162636,0.00186805 -0.00880904,0.00712981 -0.0224997,0.0106922 -0.041077,0.0106922 -0.0172077,0 -0.0310847,-0.00378645 -0.0416333,-0.0113342 -0.0108407,-0.00768619 -0.0162812,-0.0179353 -0.0162812,-0.0307725 0,-0.0125074 0.00484636,-0.0227565 0.0145441,-0.0307498 0.00995454,-0.00827279 0.0232021,-0.0124218 0.0396696,-0.0124218 0.0138769,0 0.0256441,0.00381666 0.0353394,0.0114475 0.00969775,0.00760311 0.0145441,0.0166538 0.0145441,0.0271547zm-0.0379677 -0.00498482c0,-0.00337105 -0.00159112,-0.00632418 -0.00477335,-0.00888457 -0.00318223,-0.0025629 -0.00695861,-0.00384436 -0.0113619,-0.00384436 -0.0045518,0 -0.00832566,0.00145013 -0.0112863,0.00434536 -0.00273914,0.00264598 -0.0041087,0.00579297 -0.0041087,0.00938557 0,0.00144761 0.000999482,0.00220037 0.00303621,0.00220037 0.00532722,0 0.0136554,-0.000641985 0.0249417,-0.00189323 0.00236905,-0.000251759 0.00355232,-0.000697372 0.00355232,-0.00130915zm0.122415 0.0253999c0,0.00161377 -0.000259312,0.0040936 -0.000813181,0.00740674 -0.000556387,0.00331566 -0.000815698,0.00576528 -0.000815698,0.00729597 0,0.0015609 -0.000221548,0.00256542 -0.000664643,0.00298082 -0.000407849,0.000445613 -0.00159112,0.0010599 -0.00355232,0.00189574 -0.00932514,0.00384184 -0.0196523,0.00579297 -0.0310116,0.00579297 -0.0209086,0 -0.031344,-0.00601703 -0.031344,-0.0180486 0,-0.0035926 0.000183784,-0.00896765 0.000553869,-0.0161805 0.000370085,-0.00721289 0.000556387,-0.0126181 0.000556387,-0.0162107 0,-0.00239423 -0.00185043,-0.0035926 -0.00555128,-0.0035926 -0.000297075,0 -0.000740171,0 -0.00140733,0 -0.000664643,5.53869e-005 -0.00111026,8.5598e-005 -0.00140481,8.5598e-005 -0.00273914,0 -0.0041087,-0.000725065 -0.0041087,-0.00220037 0,-0.000863533 7.55276e-005,-0.00220037 0.000259312,-0.00398282 0.000186301,-0.00181266 0.000259312,-0.00314698 0.000259312,-0.00401052 0,-0.00114298 -7.301e-005,-0.00289523 -0.000259312,-0.00523658 -0.000183784,-0.00231115 -0.000259312,-0.0040659 -0.000259312,-0.00520889 0,-0.00108508 0.00229604,-0.00169937 0.00692085,-0.00178245 0.0025906,-5.53869e-005 0.00399541,-0.000611774 0.00421948,-0.00164398 0.000443095,-0.00205939 0.000591633,-0.00531714 0.000443095,-0.00980097 -0.000297075,-0.00701903 -0.000443095,-0.0103624 -0.000443095,-0.0100276 0,-0.00632166 0.000813181,-0.00946865 0.0024043,-0.00946865 0.0019612,0 0.0047381,0.000332322 0.00832566,0.000974306 0.00414647,0.000722548 0.00699386,0.00111277 0.00858749,0.00122607 0.00366309,0.000390226 0.00924962,0.000918919 0.0166891,0.00155839 0.00181266,0.000113291 0.00270137,0.000556387 0.00270137,0.00139223 0,0.0021752 -0.000221548,0.00546065 -0.000702407,0.00986139 -0.000445613,0.00439823 -0.000704925,0.00774158 -0.000704925,0.00996965 0,0.00264598 0.00103725,0.00398282 0.00314698,0.00398282 0.00251507,0 0.00636446,-8.30804e-005 0.0115079,-0.000251759 0.00510567,-0.000138467 0.00899282,-0.000221548 0.0115834,-0.000221548 0.00159112,0 0.0024043,0.000390226 0.0024043,0.00122607 0,0.00125124 -0.000183784,0.00311929 -0.000553869,0.00562429 -0.000370085,0.00250752 -0.000556387,0.00437305 -0.000556387,0.00562681 0,0.00130915 3.77638e-005,0.00320237 0.000110774,0.00570737 7.55276e-005,0.00250752 0.000110774,0.00440326 0.000110774,0.00571241 0,0.00114047 -0.00103473,0.00172455 -0.00314447,0.00172455 -0.00144258,0 -0.00384939,-5.53869e-005 -0.00725317,-0.000138467 -0.00340378,-8.30804e-005 -0.00581059,-0.000110774 -0.00725317,-0.000110774l-0.00814188 0c-0.00107249,0 -0.00162636,0.00119837 -0.00162636,0.0035926 0,0.00130915 0,0.00323006 0,0.00579297 7.301e-005,0.00258808 0.000110774,0.00453921 0.000110774,0.00579297 0,0.0045669 0.000664643,0.00771389 0.00207197,0.00946865 0.00192344,0.00233884 0.00577283,0.00350952 0.0114701,0.00350952 0.00181518,0 0.00440578,-0.000334839 0.00777179,-0.000946613 0.00333077,-0.000639467 0.00569982,-0.000946613 0.00706939,-0.000946613 0.00151559,0 0.00229352,0.000611774 0.00229352,0.00181015zm0.121393 0.24663c0,0.0123941 -0.00503266,0.0224468 -0.015098,0.0301884 -0.0101031,0.00771641 -0.0233506,0.0115859 -0.0397452,0.0115859 -0.0159137,0 -0.0289749,-0.00381666 -0.0392643,-0.011445 -0.0102491,-0.00760563 -0.015395,-0.0174091 -0.015395,-0.0293551 0,-0.0126156 0.00492188,-0.0228672 0.0147657,-0.0307196 0.00980852,-0.00788257 0.0231291,-0.01181 0.0398937,-0.01181 0.016319,0 0.0295665,0.00387205 0.0396696,0.0115582 0.0101408,0.00768871 0.0151735,0.0176861 0.0151735,0.0299971zm-0.0355634 0c0,-0.00431766 -0.00173965,-0.00810663 -0.00529197,-0.0113921 -0.00355232,-0.00328797 -0.00814188,-0.00492944 -0.0137662,-0.00492944 -0.00569982,0 -0.0103976,0.00167168 -0.0140985,0.00504273 -0.00347931,0.00317216 -0.00521896,0.00690574 -0.00521896,0.0112788 0,0.00439823 0.00173965,0.00818719 0.00521896,0.0113342 0.00370085,0.00337105 0.00839867,0.00504021 0.0140985,0.00504021 0.00562429,0 0.0102869,-0.00166916 0.0139877,-0.00504021 0.0034063,-0.00314698 0.00507042,-0.00693595 0.00507042,-0.0113342zm0.121232 0.0162359c0,0.00161629 -0.000259312,0.0040936 -0.000813181,0.00740674 -0.000556387,0.00331566 -0.000815698,0.00576779 -0.000815698,0.00729849 0,0.00155839 -0.000221548,0.0025629 -0.000664643,0.00298082 -0.000407849,0.000443095 -0.00159112,0.00105739 -0.00355232,0.00189323 -0.00932514,0.00384184 -0.0196523,0.00579297 -0.0310116,0.00579297 -0.0209086,0 -0.031344,-0.00601703 -0.031344,-0.0180486 0,-0.0035926 0.000183784,-0.00896765 0.000553869,-0.0161805 0.000370085,-0.00721289 0.000556387,-0.0126156 0.000556387,-0.0162082 0,-0.00239674 -0.00185043,-0.0035926 -0.00555128,-0.0035926 -0.000297075,0 -0.000740171,0 -0.00140733,0 -0.000664643,5.53869e-005 -0.00111026,8.30804e-005 -0.00140481,8.30804e-005 -0.00273914,0 -0.0041087,-0.000725065 -0.0041087,-0.00220037 0,-0.000863533 7.55276e-005,-0.00220037 0.000259312,-0.00398282 0.000186301,-0.00181015 0.000259312,-0.00314698 0.000259312,-0.00401052 0,-0.00114047 -7.301e-005,-0.00289523 -0.000259312,-0.00523658 -0.000183784,-0.00231115 -0.000259312,-0.0040659 -0.000259312,-0.00520889 0,-0.00108508 0.00229604,-0.00169937 0.00692085,-0.00178245 0.0025906,-5.53869e-005 0.00399541,-0.000611774 0.00421948,-0.00164147 0.000443095,-0.0020619 0.000591633,-0.00531966 0.000443095,-0.00980349 -0.000297075,-0.00701903 -0.000443095,-0.0103599 -0.000443095,-0.0100276 0,-0.00632166 0.000813181,-0.00946865 0.0024043,-0.00946865 0.0019612,0 0.0047381,0.000334839 0.00832566,0.000974306 0.00414647,0.000725065 0.00699386,0.00111529 0.00858749,0.00122607 0.00366309,0.000390226 0.00924962,0.000918919 0.0166891,0.00155839 0.00181266,0.000113291 0.00270137,0.000558904 0.00270137,0.00139474 0,0.00217268 -0.000221548,0.00545813 -0.000702407,0.00985887 -0.000445613,0.00440074 -0.000704925,0.00774158 -0.000704925,0.00996965 0,0.00264598 0.00103725,0.00398282 0.00314698,0.00398282 0.00251507,0 0.00636446,-8.30804e-005 0.0115079,-0.000251759 0.00510567,-0.000138467 0.00899282,-0.000221548 0.0115834,-0.000221548 0.00159112,0 0.0024043,0.000390226 0.0024043,0.00122607 0,0.00125376 -0.000183784,0.00311929 -0.000553869,0.00562681 -0.000370085,0.002505 -0.000556387,0.00437305 -0.000556387,0.00562429 0,0.00130915 3.77638e-005,0.00320237 0.000110774,0.00570989 7.55276e-005,0.002505 0.000110774,0.00440074 0.000110774,0.00570989 0,0.00114047 -0.00103473,0.00172707 -0.00314447,0.00172707 -0.00144258,0 -0.00384939,-5.53869e-005 -0.00725317,-0.000140985 -0.00340378,-8.30804e-005 -0.00581059,-0.000110774 -0.00725317,-0.000110774l-0.00814188 0c-0.00107249,0 -0.00162636,0.00119837 -0.00162636,0.0035926 0,0.00130915 0,0.00323006 0,0.00579297 7.301e-005,0.0025906 0.000110774,0.00453921 0.000110774,0.00579297 0,0.0045669 0.000664643,0.00771389 0.00207197,0.00946865 0.00192344,0.00234136 0.00577283,0.00350952 0.0114701,0.00350952 0.00181518,0 0.00440578,-0.000334839 0.00777179,-0.000946613 0.00333077,-0.000639467 0.00569982,-0.000946613 0.00706939,-0.000946613 0.00151559,0 0.00229352,0.000611774 0.00229352,0.00181015zm0.110721 -0.0204151c0,0.00548834 -0.00236905,0.00863533 -0.00706687,0.00938557 -0.000777935,0.000110774 -0.00825265,0.000697372 -0.0224267,0.00181015 -0.00854721,0.000697372 -0.0212409,0.00153069 -0.038154,0.00250752 0.000999482,0.00353721 0.00407094,0.00623858 0.00921437,0.00807642 0.00418171,0.00153321 0.00895758,0.00228345 0.0142848,0.00228345 0.00643999,0 0.0129152,-0.00127893 0.0194282,-0.00389974 0.00273914,-0.00130915 0.00547827,-0.00261829 0.00821489,-0.00392744 0.00151811,0.000558904 0.00407094,0.00331566 0.00766102,0.00832818 0.00359008,0.00501252 0.00536498,0.00818971 0.00536498,0.00955424 0,0.000360015 -0.000553869,0.001002 -0.00162636,0.00186553 -0.00880904,0.00712981 -0.0224997,0.0106947 -0.041077,0.0106947 -0.0172077,0 -0.0310847,-0.00378897 -0.0416333,-0.0113342 -0.0108407,-0.00768871 -0.0162812,-0.0179378 -0.0162812,-0.030775 0,-0.0125049 0.00484636,-0.0227565 0.0145441,-0.0307473 0.00995454,-0.00827279 0.0232021,-0.0124243 0.0396696,-0.0124243 0.0138769,0 0.0256441,0.00381666 0.0353394,0.0114475 0.00969775,0.00760311 0.0145441,0.0166538 0.0145441,0.0271547zm-0.0379677 -0.00498482c0,-0.00337105 -0.00159112,-0.00632166 -0.00477335,-0.00888457 -0.00318223,-0.0025629 -0.00695861,-0.00384436 -0.0113619,-0.00384436 -0.0045518,0 -0.00832566,0.00145013 -0.0112863,0.00434536 -0.00273914,0.00264598 -0.0041087,0.00579297 -0.0041087,0.00938557 0,0.00144761 0.000999482,0.00220037 0.00303621,0.00220037 0.00532722,0 0.0136554,-0.000639467 0.0249417,-0.00189323 0.00236905,-0.000251759 0.00355232,-0.000697372 0.00355232,-0.00130915zm0.0893316 0.000166161c0,0.0148739 7.55276e-005,0.0262635 0.000221548,0.0342014 0,0.00125376 0.000110774,0.00339874 0.000334839,0.00643495 0.000221548,0.00278445 0.000332322,0.00492944 0.000332322,0.00646013 0,0.00114298 -0.000926472,0.00181015 -0.00270137,0.00203421 -0.00325776,0.000443095 -0.0091036,0.000639467 -0.0175778,0.000639467 -0.0086605,0 -0.0142118,-0.000196372 -0.0165783,-0.000639467 -0.00159112,-0.000279452 -0.00251759,-0.00100452 -0.00270137,-0.00220037 0,-0.000166161 0,-0.00133684 0,-0.00350952 0,-0.00484636 3.52462e-005,-0.0120895 0.000183784,-0.021752 0.000148538,-0.00966502 0.000221548,-0.0168779 0.000221548,-0.0216689 0,-0.022837 3.77638e-005,-0.0332548 0.000113291,-0.0312483 -0.000224065,-0.0120039 -0.00111026,-0.0223637 -0.00270389,-0.0310796 -0.00014602,-0.000586598 -0.000221548,-0.0010599 -0.000221548,-0.00139223 0,-0.00119837 0.000926472,-0.00178497 0.00281215,-0.00178497l0.0387104 0c0.00181266,0 0.00262584,0.000558904 0.00251507,0.00170189l-0.000110774 0.00147531c-0.00188819,0.0235067 -0.00284991,0.0442818 -0.00284991,0.0623279zm0.0832994 -0.0168779c0,0.000531211 -0.000553869,0.00128397 -0.00162888,0.00220289 -0.00203421,-0.000390226 -0.00403318,-0.000586598 -0.00606739,-0.000586598 -0.00425724,0 -0.0078448,0.000725065 -0.0107325,0.00214498 -0.00347931,0.00161377 -0.00521896,0.00392744 -0.00521896,0.00693595 0,0.00189323 0.00185043,0.00431515 0.00555128,0.00724058 0.00555128,0.00442844 0.00899282,0.00737905 0.0102894,0.00891226 0.00370085,0.00412129 0.00551352,0.00854973 0.00551352,0.0132853 0,0.00278445 -0.000702407,0.00570737 -0.0021475,0.00882666 -0.00166413,0.00342644 -0.00377386,0.00593395 -0.00629145,0.00749234 -0.00536498,0.00348182 -0.0116187,0.00643495 -0.0187611,0.00882918 -0.00773403,0.00247982 -0.0148387,0.00373106 -0.0213517,0.00373106 -0.0014451,0 -0.00470034,-0.00295313 -0.00969523,-0.00882666 -0.00503266,-0.00590374 -0.00755025,-0.00952655 -0.00755025,-0.0108357 0,-0.000473306 0.000407849,-0.000780452 0.00118327,-0.000888708 0.00507042,-0.000697372 0.0101786,-0.00142244 0.0152843,-0.00211729 0.00636446,-0.00153321 0.00954669,-0.00404073 0.00954669,-0.00752003 0,-0.00239674 -0.00185043,-0.0051535 -0.00551352,-0.00830049 -0.00658601,-0.00551352 -0.0100276,-0.00841126 -0.0103246,-0.0087461 -0.00366309,-0.00392744 -0.00551352,-0.00804873 -0.00551352,-0.0123916 0,-0.00816202 0.00547827,-0.0150955 0.0164675,-0.0208053 0.00984377,-0.0050679 0.0203547,-0.00760311 0.0315655,-0.00760311 0.00114802,0 0.00399793,0.00292292 0.00854973,0.00877128 0.0045518,0.00585087 0.00684532,0.00927479 0.00684532,0.0102491zm-0.517248 -0.0691405l0.0402864 0c0.00276935,0 0.00503266,0.00170441 0.00503266,0.00378645l0 0.0303218c0,0.00208204 -0.00226331,0.00378645 -0.00503266,0.00378645l-0.0402864 0c-0.00276935,0 -0.00503266,-0.00170441 -0.00503266,-0.00378645l0 -0.0303218c0,-0.00208204 0.00226331,-0.00378645 0.00503266,-0.00378645zm0 0.0625268l0.0402864 0c0.00276935,0 0.00503266,0.00170189 0.00503266,0.00378645l0 0.0303193c0,0.00208456 -0.00226331,0.00378897 -0.00503266,0.00378897l-0.0402864 0c-0.00276935,0 -0.00503266,-0.00170441 -0.00503266,-0.00378897l0 -0.0303193c0,-0.00208456 0.00226331,-0.00378645 0.00503266,-0.00378645zm-0.196933 -0.0625268l0.0402864 0c0.00276935,0 0.00503266,0.00170441 0.00503266,0.00378645l0 0.0303218c0,0.00208204 -0.00226331,0.00378645 -0.00503266,0.00378645l-0.0402864 0c-0.00276935,0 -0.00503266,-0.00170441 -0.00503266,-0.00378645l0 -0.0303218c0,-0.00208204 0.00226331,-0.00378645 0.00503266,-0.00378645zm-0.00251759 -0.123158l0.0453216 0c0.00138467,0 0.00251507,0.000850945 0.00251507,0.00189323l0 0.0341083c0,0.00104228 -0.0011304,0.00189323 -0.00251507,0.00189323l-0.0453216 0c-0.00138467,0 -0.00251507,-0.000850945 -0.00251507,-0.00189323l0 -0.0341083c0,-0.00104228 0.0011304,-0.00189323 0.00251507,-0.00189323zm0.199451 0.0606311l0.0402864 0c0.00276935,0 0.00503266,0.00170441 0.00503266,0.00378897l0 0.0303193c0,0.00208456 -0.00226331,0.00378645 -0.00503266,0.00378645l-0.0402864 0c-0.00276935,0 -0.00503266,-0.00170189 -0.00503266,-0.00378645l0 -0.0303193c0,-0.00208456 0.00226331,-0.00378897 0.00503266,-0.00378897zm-0.196933 0l0.0402864 0c0.00276935,0 0.00503266,0.00170441 0.00503266,0.00378897l0 0.0303193c0,0.00208456 -0.00226331,0.00378645 -0.00503266,0.00378645l-0.0402864 0c-0.00276935,0 -0.00503266,-0.00170189 -0.00503266,-0.00378645l0 -0.0303193c0,-0.00208456 0.00226331,-0.00378897 0.00503266,-0.00378897zm-0.00251507 -0.123158l0.0453166 0c0.00138467,0 0.00251759,0.000853462 0.00251759,0.00189574l0 0.0341032c0,0.00104228 -0.00113291,0.00189574 -0.00251759,0.00189574l-0.0453166 0c-0.00138467,0 -0.00251759,-0.000853462 -0.00251759,-0.00189574l0 -0.0341032c0,-0.00104228 0.00113291,-0.00189574 0.00251759,-0.00189574zm0.00489671 0.244742l0.0349492 0c0.0042371,0 0.0077013,0.00260822 0.0077013,0.00579297l0 0.0547273c0,0.00318727 -0.0034642,0.00579549 -0.0077013,0.00579549l-0.0349492 0c-0.0042371,0 -0.0077013,-0.00260822 -0.0077013,-0.00579549l0 -0.0547273c0,-0.00318475 0.0034642,-0.00579297 0.0077013,-0.00579297zm0.0959176 -0.0590576l0.0402864 0c0.00276935,0 0.00503266,0.00170441 0.00503266,0.00378645l0 0.0303218c0,0.00208204 -0.00226331,0.00378645 -0.00503266,0.00378645l-0.0402864 0c-0.00276935,0 -0.00503266,-0.00170441 -0.00503266,-0.00378645l0 -0.0303218c0,-0.00208204 0.00226331,-0.00378645 0.00503266,-0.00378645z"/>
 </g>
</svg>
